<?xml version="1.0" encoding="UTF-8"?>
<!-- Clippa アプリアイコン (ライト UI 補助) -->
<svg xmlns="http://www.w3.org/2000/svg" viewBox="0 0 1024 1024" width="1024" height="1024">
  <title>Clippa (Light)</title>
  <defs>
    <linearGradient id="bg" x1="0" y1="0" x2="1" y2="1">
      <stop offset="0%" stop-color="#FFF5A8"/>
      <stop offset="50%" stop-color="#FFE94D"/>
      <stop offset="100%" stop-color="#FFCC00"/>
    </linearGradient>
    <linearGradient id="board" x1="0" y1="0" x2="0" y2="1">
      <stop offset="0%" stop-color="#B58448"/>
      <stop offset="20%" stop-color="#925818"/>
      <stop offset="55%" stop-color="#6A3C0C"/>
      <stop offset="100%" stop-color="#3A2100"/>
    </linearGradient>
    <linearGradient id="boardHi" x1="0" y1="0" x2="0" y2="1">
      <stop offset="0%" stop-color="#FFE0A8" stop-opacity="0.45"/>
      <stop offset="40%" stop-color="#FFFFFF" stop-opacity="0.1"/>
      <stop offset="100%" stop-color="#FFFFFF" stop-opacity="0"/>
    </linearGradient>
    <linearGradient id="metalClip" x1="0" y1="0" x2="0" y2="1">
      <stop offset="0%" stop-color="#FFFFFF"/>
      <stop offset="22%" stop-color="#EAEAEA"/>
      <stop offset="55%" stop-color="#B0B0B0"/>
      <stop offset="85%" stop-color="#787878"/>
      <stop offset="100%" stop-color="#525252"/>
    </linearGradient>
    <linearGradient id="metalClipDark" x1="0" y1="0" x2="0" y2="1">
      <stop offset="0%" stop-color="#B5B5B5"/>
      <stop offset="100%" stop-color="#3D3D3D"/>
    </linearGradient>
    <radialGradient id="metalRivet" cx="0.3" cy="0.3" r="0.75">
      <stop offset="0%" stop-color="#FFFFFF"/>
      <stop offset="40%" stop-color="#D5D5D5"/>
      <stop offset="80%" stop-color="#6A6A6A"/>
      <stop offset="100%" stop-color="#2A2A2A"/>
    </radialGradient>
    <linearGradient id="paperTop" x1="0" y1="0" x2="0" y2="1">
      <stop offset="0%" stop-color="#FFFFFF"/>
      <stop offset="60%" stop-color="#FCFCFC"/>
      <stop offset="100%" stop-color="#EDEDED"/>
    </linearGradient>
    <linearGradient id="paperBack" x1="0" y1="0" x2="0" y2="1">
      <stop offset="0%" stop-color="#F0F0F0"/>
      <stop offset="100%" stop-color="#DCDCDC"/>
    </linearGradient>
    <linearGradient id="paperHi" x1="0" y1="0" x2="0" y2="1">
      <stop offset="0%" stop-color="#FFFFFF" stop-opacity="0.85"/>
      <stop offset="100%" stop-color="#FFFFFF" stop-opacity="0"/>
    </linearGradient>
    <filter id="boardShadow" x="-30%" y="-30%" width="160%" height="160%">
      <feGaussianBlur in="SourceAlpha" stdDeviation="26"/>
      <feOffset dx="0" dy="24"/>
      <feComponentTransfer><feFuncA type="linear" slope="0.30"/></feComponentTransfer>
      <feMerge><feMergeNode/><feMergeNode in="SourceGraphic"/></feMerge>
    </filter>
    <filter id="paperShadow1" x="-30%" y="-30%" width="160%" height="160%">
      <feGaussianBlur in="SourceAlpha" stdDeviation="14"/>
      <feOffset dx="0" dy="12"/>
      <feComponentTransfer><feFuncA type="linear" slope="0.30"/></feComponentTransfer>
      <feMerge><feMergeNode/><feMergeNode in="SourceGraphic"/></feMerge>
    </filter>
    <filter id="paperShadow2" x="-30%" y="-30%" width="160%" height="160%">
      <feGaussianBlur in="SourceAlpha" stdDeviation="8"/>
      <feOffset dx="3" dy="6"/>
      <feComponentTransfer><feFuncA type="linear" slope="0.38"/></feComponentTransfer>
      <feMerge><feMergeNode/><feMergeNode in="SourceGraphic"/></feMerge>
    </filter>
    <filter id="clipShadow" x="-30%" y="-30%" width="160%" height="160%">
      <feGaussianBlur in="SourceAlpha" stdDeviation="9"/>
      <feOffset dx="0" dy="8"/>
      <feComponentTransfer><feFuncA type="linear" slope="0.4"/></feComponentTransfer>
      <feMerge><feMergeNode/><feMergeNode in="SourceGraphic"/></feMerge>
    </filter>
  </defs>

  <rect x="64" y="64" width="896" height="896" rx="200" fill="url(#bg)"/>
  <rect x="64" y="64" width="896" height="448" rx="200"
        fill="#FFFFFF" opacity="0.2" pointer-events="none"/>
  <rect x="64" y="64" width="896" height="896" rx="200" fill="none"
        stroke="#FFFFFF" stroke-width="2.5" opacity="0.55"/>

  <g transform="translate(0 -64)">

    <g filter="url(#boardShadow)">
      <rect x="200" y="260" width="624" height="680" rx="36" fill="url(#board)"/>
      <!-- 木目 -->
      <g opacity="0.18">
        <path d="M 200 350 Q 512 348 824 354" stroke="#6A3C0C" stroke-width="1.5" fill="none"/>
        <path d="M 200 420 Q 512 422 824 416" stroke="#3A2100" stroke-width="1.2" fill="none"/>
        <path d="M 200 510 Q 512 514 824 508" stroke="#6A3C0C" stroke-width="1.3" fill="none"/>
        <path d="M 200 590 Q 512 586 824 594" stroke="#3A2100" stroke-width="1.5" fill="none"/>
        <path d="M 200 680 Q 512 684 824 678" stroke="#6A3C0C" stroke-width="1.2" fill="none"/>
        <path d="M 200 760 Q 512 756 824 762" stroke="#3A2100" stroke-width="1.4" fill="none"/>
        <path d="M 200 850 Q 512 854 824 848" stroke="#6A3C0C" stroke-width="1.3" fill="none"/>
      </g>
      <rect x="200" y="260" width="624" height="180" rx="36" fill="url(#boardHi)"/>
      <rect x="206" y="266" width="612" height="668" rx="32" fill="none" stroke="#FFE0A8" stroke-width="1.2" opacity="0.4"/>
      <rect x="210" y="270" width="604" height="660" rx="30" fill="none" stroke="#000000" stroke-width="2" opacity="0.45"/>
      <rect x="214" y="274" width="596" height="652" rx="28" fill="none" stroke="#FFFFFF" stroke-width="1" opacity="0.14"/>
      <rect x="244" y="276" width="536" height="3" rx="1.5" fill="#FFE0A8" opacity="0.55"/>
      <!-- 紐穴 (金属リング付き) -->
      <circle cx="512" cy="300" r="14" fill="#000000" opacity="0.4"/>
      <circle cx="512" cy="298" r="11" fill="url(#metalRivet)"/>
      <circle cx="512" cy="298" r="6" fill="#1A0E00"/>
      <circle cx="510" cy="296" r="2.5" fill="#FFE0A8" opacity="0.7"/>
    </g>

    <!-- 3 層スタックの紙 (右下方向、板の縁を見せるため一回り小さく) -->
    <g filter="url(#paperShadow2)" transform="translate(16 14)">
      <rect x="260" y="350" width="504" height="540" rx="12" fill="url(#paperBack)"/>
      <rect x="752" y="364" width="12" height="510" fill="#000000" opacity="0.08"/>
    </g>
    <g filter="url(#paperShadow2)" transform="translate(8 7)">
      <rect x="260" y="350" width="504" height="540" rx="12" fill="#F0F0F0"/>
      <rect x="752" y="364" width="12" height="510" fill="#000000" opacity="0.06"/>
    </g>
    <g filter="url(#paperShadow1)">
      <rect x="260" y="350" width="504" height="540" rx="12" fill="url(#paperTop)"/>
      <rect x="260" y="350" width="504" height="60" rx="12" fill="url(#paperHi)"/>
      <rect x="260" y="362" width="4" height="516" fill="#FFFFFF" opacity="0.7"/>
      <rect x="750" y="362" width="14" height="516" fill="#000000" opacity="0.05"/>
      <rect x="260" y="876" width="504" height="14" rx="12" fill="#000000" opacity="0.04"/>
    </g>

    <g filter="url(#clipShadow)">
      <path d="M 388 232 L 636 232 Q 660 232 660 256 L 660 348 Q 660 372 636 372 L 388 372 Q 364 372 364 348 L 364 256 Q 364 232 388 232 Z" fill="url(#metalClip)"/>
      <rect x="380" y="242" width="264" height="14" rx="6" fill="#FFFFFF" opacity="0.8"/>
      <rect x="396" y="260" width="232" height="6" rx="3" fill="#FFFFFF" opacity="0.45"/>
      <rect x="392" y="316" width="240" height="8" rx="4" fill="url(#metalClipDark)"/>
      <rect x="460" y="258" width="104" height="42" rx="14" fill="url(#metalClipDark)"/>
      <rect x="472" y="268" width="80" height="14" rx="6" fill="#FFFFFF" opacity="0.5"/>
      <circle cx="412" cy="352" r="7" fill="url(#metalRivet)"/>
      <circle cx="612" cy="352" r="7" fill="url(#metalRivet)"/>
      <rect x="364" y="370" width="296" height="4" rx="2" fill="#000000" opacity="0.18"/>
    </g>

    <g>
      <rect x="284" y="396" width="34" height="42" rx="4" fill="#FFD60A"/>
      <rect x="290" y="406" width="22" height="3" rx="1" fill="#1A1A1A"/>
      <rect x="290" y="414" width="18" height="3" rx="1" fill="#1A1A1A"/>
      <rect x="290" y="422" width="20" height="3" rx="1" fill="#1A1A1A"/>
      <rect x="290" y="430" width="16" height="3" rx="1" fill="#1A1A1A"/>
      <rect x="332" y="400" width="260" height="14" rx="3" fill="#1A1A1A"/>
      <rect x="332" y="422" width="170" height="9" rx="2.5" fill="#A8A8A8"/>
    </g>
    <line x1="284" y1="464" x2="740" y2="464" stroke="#EEEEEE" stroke-width="2"/>
    <g>
      <rect x="284" y="484" width="440" height="11" rx="3" fill="#3A3A3A"/>
      <rect x="284" y="504" width="390" height="11" rx="3" fill="#3A3A3A"/>
      <rect x="284" y="524" width="360" height="11" rx="3" fill="#3A3A3A"/>
      <rect x="284" y="544" width="280" height="11" rx="3" fill="#3A3A3A"/>
    </g>
    <g>
      <rect x="274" y="576" width="476" height="56" rx="12" fill="#1A1A1A"/>
      <rect x="290" y="594" width="22" height="22" rx="4" fill="#FFD60A"/>
      <rect x="324" y="596" width="270" height="11" rx="2.5" fill="#FFFFFF"/>
      <rect x="324" y="614" width="190" height="8" rx="2" fill="#FFE38A" opacity="0.85"/>
      <rect x="700" y="594" width="34" height="16" rx="3" fill="#FFD60A"/>
    </g>
    <g>
      <rect x="284" y="656" width="380" height="11" rx="3" fill="#A8A8A8"/>
      <rect x="284" y="676" width="420" height="11" rx="3" fill="#A8A8A8"/>
      <rect x="284" y="696" width="340" height="11" rx="3" fill="#A8A8A8"/>
    </g>
    <g>
      <circle cx="294" cy="740" r="6.5" fill="none" stroke="#3A3A3A" stroke-width="2"/>
      <rect x="312" y="735" width="280" height="11" rx="2.5" fill="#3A3A3A"/>
      <circle cx="294" cy="768" r="6.5" fill="#1A1A1A"/>
      <path d="M 291 768 L 293.5 770.5 L 297 766" fill="none" stroke="#FFD60A" stroke-width="1.8" stroke-linecap="round" stroke-linejoin="round"/>
      <rect x="312" y="763" width="170" height="11" rx="2.5" fill="#A8A8A8"/>
      <line x1="312" y1="768.5" x2="482" y2="768.5" stroke="#A8A8A8" stroke-width="1.5"/>
      <circle cx="294" cy="796" r="6.5" fill="none" stroke="#3A3A3A" stroke-width="2"/>
      <rect x="312" y="791" width="320" height="11" rx="2.5" fill="#3A3A3A"/>
      <circle cx="294" cy="824" r="6.5" fill="none" stroke="#3A3A3A" stroke-width="2"/>
      <rect x="312" y="819" width="240" height="11" rx="2.5" fill="#3A3A3A"/>
    </g>
  </g>
</svg>
